PathFileType	4	(X/Y/Z)	Captury_Subj1_squat02.trc
DataRate	CameraRate	NumFrames	NumMarkers	Units	OrigDataRate	OrigDataStartFrame	OrigNumFrames
60.0	60.0	5	47	mm	59.99879837036133	249	284
Frame#	Time		LeftUpLeg_		RightUpLeg_		LeftLeg_		RightLeg_		LeftFoot_		RightFoot_		LeftToeBase_		RightToeBase_		Knee_Lateral_r		Knee_Lateral_l		Ankle_Lateral_r		Ankle_Lateral_l		LeftArm_		LeftForeArm_		LeftHand_		LeftHandEE		RightArm_		RightForeArm_		RightHand_		RightHandEE		Spine_		Spine1_		Spine2_		Spine3_		Spine4_		Spine5_		Spine_x		Spine_y		Spine_z		RASI		LASI		RIPS		LIPS		RTHI		LTHI		RTIB		LTIB		RTOE		LTOE		RHEE		LHEE		RHipAngles		LHipAngles		RKneeAngles		LKneeAngles		RAnkleAngles		LAnkleAngles
			X1	Y1	Z1	X2	Y2	Z2	X3	Y3	Z3	X4	Y4	Z4	X5	Y5	Z5	X6	Y6	Z6	X7	Y7	Z7	X8	Y8	Z8	X9	Y9	Z9	X10	Y10	Z10	X11	Y11	Z11	X12	Y12	Z12	X13	Y13	Z13	X14	Y14	Z14	X15	Y15	Z15	X16	Y16	Z16	X17	Y17	Z17	X18	Y18	Z18	X19	Y19	Z19	X20	Y20	Z20	X21	Y21	Z21	X22	Y22	Z22	X23	Y23	Z23	X24	Y24	Z24	X25	Y25	Z25	X26	Y26	Z26	X27	Y27	Z27	X28	Y28	Z28	X29	Y29	Z29	X30	Y30	Z30	X31	Y31	Z31	X32	Y32	Z32	X33	Y33	Z33	X34	Y34	Z34	X35	Y35	Z35	X36	Y36	Z36	X37	Y37	Z37	X38	Y38	Z38	X39	Y39	Z39	X40	Y40	Z40	X41	Y41	Z41	X42	Y42	Z42	X43	Y43	Z43	X44	Y44	Z44	X45	Y45	Z45	X46	Y46	Z46	X47	Y47	Z47

249	4.13333	-178.46626	853.71704	63.31533	-12.56665	851.61420	59.73092	-200.02010	456.07248	45.81412	13.71002	454.53497	36.71607	-223.01813	89.47131	66.63977	47.32989	88.63437	55.30408	-239.01334	31.21658	-44.93446	73.31824	25.27740	-51.50777	59.44473	455.15643	37.82716	-245.72760	456.12350	47.84047	92.38863	93.69791	74.60040	-267.89404	92.27843	86.80283	-236.43976	1376.74023	28.41397	-244.05478	1367.59949	-247.68240	-227.76314	1368.09888	-480.57513	-220.16380	1377.10669	-564.95825	33.80694	1375.72595	33.43243	24.78744	1375.48669	-242.77280	14.83265	1397.17456	-475.01245	26.67938	1393.22083	-559.29431	-94.10001	944.85614	72.99601	-93.97099	1041.41162	52.94132	-93.97430	1112.82996	62.92795	-93.95695	1198.24231	95.97599	-97.17823	1331.52258	92.51316	0.00000	0.00000	0.00000	-47.56697	944.26630	71.99062	-93.58689	991.27063	69.51520	-93.05340	948.32477	119.40244	42.67937	906.91321	-39.30709	-236.51892	910.45221	-33.27476	-56.55347	918.61676	102.12404	-131.00635	919.56049	103.73267	64.60461	666.63098	53.45031	-253.32986	667.69739	60.91296	65.99616	291.84888	31.97939	-248.45206	237.08708	40.94912	82.83890	13.31280	-121.38552	-245.94749	8.62115	-112.44786	55.46548	35.52933	112.83632	-233.60970	33.14211	120.59468	-6.81856	1.61880	2.51701	-6.01688	-0.62209	1.29776	-0.34774	1.46227	0.18645	0.06870	0.56716	-0.01809	12.50244	5.61089	11.10375	9.05745	0.65994	11.60882
250	4.15000	-178.32854	853.03021	61.13845	-12.43752	851.21094	57.03777	-199.84027	455.35611	44.26787	13.75837	454.05170	35.35087	-222.67819	88.83157	66.56699	47.39290	88.22784	55.36728	-239.10423	30.75860	-45.03939	73.03617	24.45412	-51.27982	59.49746	454.67874	36.25996	-245.54289	455.40070	46.40167	92.53117	93.36250	74.45782	-267.50269	91.60506	86.84875	-236.37878	1375.85950	28.83689	-243.34071	1367.00354	-247.28598	-226.70378	1367.49036	-480.15433	-219.14206	1375.84778	-564.60773	33.85337	1374.95325	34.66080	24.39818	1374.32886	-241.52927	14.10159	1395.71362	-473.78210	25.85561	1392.08765	-558.09167	-94.07016	944.21185	71.34314	-94.11507	1040.82361	51.96849	-94.14286	1112.09692	62.39016	-94.08259	1197.25317	95.87872	-97.23495	1330.46741	93.02628	0.00000	0.00000	0.00000	-47.53952	943.70154	70.19294	-93.63712	990.65503	68.25709	-92.88871	947.28607	117.77412	42.42645	907.43695	-41.69019	-236.75739	910.49866	-34.78899	-56.39661	917.78223	100.13320	-130.84563	918.59869	101.97352	64.71487	666.20880	51.09217	-253.15866	666.99188	59.18347	65.99751	291.33716	31.09675	-248.22159	236.34010	40.37371	82.25588	12.25264	-121.15696	-246.28445	8.32098	-112.57969	55.90019	35.39512	113.09614	-233.09230	32.42120	120.47162	-6.11824	1.51553	2.45300	-5.44874	-0.53547	1.25148	-0.38537	1.45115	0.20211	-0.06878	0.56950	-0.00367	12.49250	5.61177	11.23839	8.74532	0.72511	11.62347
251	4.16667	-178.13272	852.94427	59.59789	-12.24927	851.27618	55.14199	-199.59401	455.24713	43.21259	13.58540	453.99301	35.37472	-222.25790	88.76669	66.39644	47.23376	88.12860	54.61335	-239.29866	31.09425	-45.32543	72.70323	24.71994	-52.29280	59.32703	454.58847	36.17065	-245.29124	455.28360	45.45873	92.42319	93.19992	73.59953	-267.03192	91.46574	86.79933	-236.59656	1374.76660	29.10658	-242.21222	1366.38123	-247.06166	-225.53368	1367.14893	-479.92627	-217.63550	1375.10632	-564.38751	33.66830	1373.83142	35.43246	23.89052	1373.23853	-240.74646	13.28497	1394.70288	-472.97803	25.24295	1390.85388	-557.24902	-93.92776	944.15997	69.93854	-94.09122	1040.63879	50.93062	-94.15445	1111.66467	61.63045	-94.09939	1196.47449	95.46298	-97.34151	1329.49316	93.17554	0.00000	0.00000	0.00000	-47.39925	943.69208	68.68871	-93.53928	990.61383	67.01118	-92.65102	947.07568	116.37723	42.36049	907.88629	-43.50740	-236.81056	910.69354	-36.00841	-56.17200	917.66278	98.55830	-130.61761	918.41138	100.55803	64.74467	666.18579	49.93429	-252.92444	666.88684	58.02920	65.79613	291.28156	30.67713	-247.91510	236.20770	39.93572	81.69350	12.89721	-122.26489	-246.84462	8.95372	-112.92389	56.06248	35.15740	112.16679	-232.34442	32.15645	120.15364	-5.63331	1.41057	2.44486	-5.19130	-0.49431	1.26761	0.00946	1.48257	0.19425	-0.13589	0.56786	0.00142	12.41984	5.61021	11.39624	8.41049	0.90128	11.58174
252	4.18333	-177.85664	852.37817	55.68338	-11.95170	850.83356	52.06079	-199.41699	454.57324	42.32468	13.62830	453.49335	33.12802	-221.76321	88.16132	66.86018	46.74672	87.76651	55.62450	-238.42372	30.61433	-44.98364	72.85430	23.76530	-50.77338	59.36459	454.04712	34.20985	-245.12894	454.64981	44.24762	91.82982	92.89622	74.84631	-266.68756	90.78615	86.93979	-236.75060	1373.75842	29.48203	-241.18834	1365.96875	-246.72513	-224.23174	1367.19104	-479.56775	-216.44041	1374.31494	-564.11328	33.55184	1372.90808	36.22839	23.41118	1372.24341	-239.93729	12.58917	1393.65833	-472.16345	24.45575	1390.26074	-556.46674	-93.75394	943.52747	67.35590	-93.87405	1040.07812	49.24884	-94.01868	1110.90308	60.58385	-94.12561	1195.31482	95.14309	-97.47266	1328.24438	93.96159	0.00000	0.00000	0.00000	-47.21939	943.09424	66.33980	-93.37504	990.00818	64.88971	-92.71635	945.98468	113.82706	43.13213	908.44196	-45.74348	-236.07512	911.04144	-39.64689	-56.13108	916.76678	95.90543	-130.58635	917.45996	97.53118	64.89720	665.66223	47.64926	-252.73615	666.35040	55.07292	65.68150	290.69177	30.10187	-247.42340	235.45703	39.60501	82.24466	11.51030	-120.61843	-245.75882	8.54065	-112.62714	55.30962	35.13671	113.53024	-231.92245	31.46705	120.51503	-4.96863	1.31385	2.51944	-4.17180	-0.41406	1.14655	-0.37246	1.48037	0.17119	0.08015	0.45168	-0.00508	12.25632	5.60757	11.51136	8.10182	1.15289	11.53811
253	4.20000	-177.84677	852.26923	54.84629	-11.94571	850.76251	51.03628	-199.80804	454.47775	41.74175	13.90635	453.37936	33.41879	-221.43498	88.05090	66.69624	46.44362	87.55658	55.19308	-238.60272	30.87080	-45.25899	72.59899	24.13815	-51.54149	59.64080	453.96524	34.55943	-245.51654	454.59888	43.74240	91.51645	92.51203	74.48453	-266.33389	90.53097	86.85098	-236.63908	1372.82373	29.39979	-240.62437	1365.60510	-246.82971	-223.47504	1367.25574	-479.65555	-215.27342	1374.10718	-564.18481	33.64575	1371.89966	36.74472	23.05241	1371.35400	-239.40414	11.92242	1392.89807	-471.60376	23.89066	1389.65295	-555.89868	-93.74871	943.41663	66.56699	-93.90643	1039.76587	48.64211	-94.05714	1110.33142	60.11677	-94.17411	1194.42773	94.85414	-97.50883	1327.12561	93.97522	0.00000	0.00000	0.00000	-47.21526	942.99402	65.49832	-93.38154	989.90118	64.17280	-92.65975	945.80164	113.04073	43.01785	908.53400	-46.73946	-236.18286	911.06958	-40.32746	-56.08888	916.61884	95.03281	-130.54240	917.29498	96.74268	65.02403	665.62604	47.32372	-252.90402	666.31250	54.46489	65.71437	290.50507	30.10997	-247.41052	235.26987	39.32519	82.02385	12.31418	-121.45615	-246.26831	9.00189	-112.93234	54.93924	34.60014	112.81021	-231.22179	31.15317	120.20473	-4.69653	1.33695	2.65875	-4.05389	-0.34512	1.17714	-0.07254	1.34958	0.16223	0.04428	0.29177	-0.01248	12.04709	5.60757	11.56723	7.84211	1.36753	11.51938
